<?xml version="1.0" encoding="UTF-8"?>
<svg id="Ebene_2" data-name="Ebene 2" xmlns="http://www.w3.org/2000/svg" xmlns:xlink="http://www.w3.org/1999/xlink" viewBox="0 0 72 72">
  <defs>
    <style>
      .cls-1 {
        fill: none;
      }

      .cls-2 {
        fill: url(#Unbenannter_Verlauf_18-5);
      }

      .cls-3 {
        fill: url(#Unbenannter_Verlauf_18-4);
      }

      .cls-4 {
        fill: url(#Unbenannter_Verlauf_18-3);
      }

      .cls-5 {
        fill: url(#Unbenannter_Verlauf_18-2);
      }

      .cls-6 {
        fill: #00ff91;
      }

      .cls-7 {
        fill: #022147;
      }

      .cls-8 {
        fill: url(#Unbenannter_Verlauf_9-3);
      }

      .cls-9 {
        fill: url(#Unbenannter_Verlauf_9-2);
      }

      .cls-10 {
        fill: url(#Unbenannter_Verlauf_9-4);
      }

      .cls-11 {
        fill: url(#Unbenannter_Verlauf_18);
      }

      .cls-12 {
        fill: url(#Unbenannter_Verlauf_9);
      }
    </style>
    <linearGradient id="Unbenannter_Verlauf_18" data-name="Unbenannter Verlauf 18" x1="36" y1="26.5" x2="36" y2="4.5" gradientUnits="userSpaceOnUse">
      <stop offset="0" stop-color="#151f42"/>
      <stop offset=".18" stop-color="#151f42" stop-opacity=".78"/>
      <stop offset=".67" stop-color="#151f42" stop-opacity=".21"/>
      <stop offset=".94" stop-color="#151f42" stop-opacity="0"/>
    </linearGradient>
    <linearGradient id="Unbenannter_Verlauf_9" data-name="Unbenannter Verlauf 9" x1="16.52" y1="-45.03" x2="16.52" y2="-67.03" gradientTransform="translate(.51 52.6) rotate(40)" gradientUnits="userSpaceOnUse">
      <stop offset=".06" stop-color="#151f42" stop-opacity="0"/>
      <stop offset=".33" stop-color="#151f42" stop-opacity=".21"/>
      <stop offset=".82" stop-color="#151f42" stop-opacity=".78"/>
      <stop offset="1" stop-color="#151f42"/>
    </linearGradient>
    <linearGradient id="Unbenannter_Verlauf_18-2" data-name="Unbenannter Verlauf 18" x1="-44.38" y1="-87.3" x2="-44.38" y2="-109.3" gradientTransform="translate(-32.91 93.22) rotate(80)" xlink:href="#Unbenannter_Verlauf_18"/>
    <linearGradient id="Unbenannter_Verlauf_9-2" data-name="Unbenannter Verlauf 9" x1="-118.21" y1="-80.53" x2="-118.21" y2="-102.53" gradientTransform="translate(-84.62 102.85) rotate(120)" xlink:href="#Unbenannter_Verlauf_9"/>
    <linearGradient id="Unbenannter_Verlauf_18-3" data-name="Unbenannter Verlauf 18" x1="-170.41" y1="-27.9" x2="-170.41" y2="-49.9" gradientTransform="translate(-130.42 77) rotate(160)" xlink:href="#Unbenannter_Verlauf_18"/>
    <linearGradient id="Unbenannter_Verlauf_9-3" data-name="Unbenannter Verlauf 9" x1="-176.57" y1="45.98" x2="-176.57" y2="23.98" gradientTransform="translate(-148.89 27.75) rotate(-160)" xlink:href="#Unbenannter_Verlauf_9"/>
    <linearGradient id="Unbenannter_Verlauf_18-4" data-name="Unbenannter Verlauf 18" x1="-133.79" y1="106.53" x2="-133.79" y2="84.53" gradientTransform="translate(-131.38 -21.85) rotate(-120)" xlink:href="#Unbenannter_Verlauf_18"/>
    <linearGradient id="Unbenannter_Verlauf_9-4" data-name="Unbenannter Verlauf 9" x1="-62.11" y1="125.42" x2="-62.11" y2="103.42" gradientTransform="translate(-86.09 -48.59) rotate(-80)" xlink:href="#Unbenannter_Verlauf_9"/>
    <linearGradient id="Unbenannter_Verlauf_18-5" data-name="Unbenannter Verlauf 18" x1="4.95" y1="93.82" x2="4.95" y2="71.81" gradientTransform="translate(-34.2 -39.96) rotate(-40)" xlink:href="#Unbenannter_Verlauf_18"/>
  </defs>
  <g id="xmain">
    <g>
      <rect class="cls-1" width="72" height="72"/>
      <circle class="cls-7" cx="36" cy="36" r="4.5"/>
      <circle class="cls-6" cx="59.74" cy="7.71" r="4.5"/>
      <path class="cls-11" d="m36,26.5c-2.49,0-4.5-2.01-4.5-4.5v-13c0-2.49,2.01-4.5,4.5-4.5s4.5,2.01,4.5,4.5v13c0,2.49-2.01,4.5-4.5,4.5Z"/>
      <path class="cls-12" d="m45,29.78c-1.02,0-2.05-.35-2.89-1.05-1.9-1.6-2.15-4.44-.55-6.34l8.36-9.96c1.6-1.9,4.44-2.15,6.34-.55,1.9,1.6,2.15,4.44.55,6.34l-8.36,9.96c-.89,1.06-2.17,1.61-3.45,1.61Z"/>
      <path class="cls-5" d="m49.78,38.07c-2.14,0-4.04-1.54-4.43-3.72-.43-2.45,1.2-4.78,3.65-5.21l12.8-2.26c2.45-.43,4.78,1.2,5.21,3.65s-1.2,4.78-3.65,5.21l-12.8,2.26c-.26.05-.53.07-.79.07Z"/>
      <path class="cls-9" d="m59.38,54c-.76,0-1.54-.19-2.25-.6l-11.26-6.5c-2.15-1.24-2.89-4-1.65-6.15,1.24-2.15,4-2.89,6.15-1.65l11.26,6.5c2.15,1.24,2.89,4,1.65,6.15-.83,1.44-2.35,2.25-3.9,2.25Z"/>
      <path class="cls-4" d="m45.23,65.87c-1.84,0-3.56-1.13-4.23-2.96l-4.45-12.22c-.85-2.34.35-4.92,2.69-5.77,2.34-.85,4.92.36,5.77,2.69l4.45,12.22c.85,2.34-.35,4.92-2.69,5.77-.51.18-1.03.27-1.54.27Z"/>
      <path class="cls-8" d="m26.77,65.87c-.51,0-1.03-.09-1.54-.27-2.34-.85-3.54-3.43-2.69-5.77l4.45-12.22c.85-2.33,3.43-3.54,5.77-2.69,2.34.85,3.54,3.43,2.69,5.77l-4.45,12.22c-.67,1.83-2.39,2.96-4.23,2.96Z"/>
      <path class="cls-3" d="m12.62,54c-1.56,0-3.07-.81-3.9-2.25-1.24-2.15-.51-4.9,1.65-6.15l11.26-6.5c2.15-1.24,4.91-.5,6.15,1.65,1.24,2.15.51,4.9-1.65,6.15l-11.26,6.5c-.71.41-1.48.6-2.25.6Z"/>
      <path class="cls-10" d="m22.22,38.07c-.26,0-.52-.02-.79-.07l-12.8-2.26c-2.45-.43-4.08-2.77-3.65-5.21.43-2.45,2.77-4.08,5.21-3.65l12.8,2.26c2.45.43,4.08,2.77,3.65,5.21-.39,2.18-2.28,3.72-4.43,3.72Z"/>
      <path class="cls-2" d="m27,29.78c-1.28,0-2.56-.55-3.45-1.61l-8.36-9.96c-1.6-1.9-1.35-4.74.55-6.34,1.9-1.6,4.74-1.35,6.34.55l8.36,9.96c1.6,1.9,1.35,4.74-.55,6.34-.84.71-1.87,1.05-2.89,1.05Z"/>
    </g>
  </g>
</svg>