<?xml version="1.0" encoding="UTF-8"?>
<svg id="Ebene_2" data-name="Ebene 2" xmlns="http://www.w3.org/2000/svg" xmlns:xlink="http://www.w3.org/1999/xlink" viewBox="0 0 72 72">
  <defs>
    <style>
      .cls-1 {
        fill: none;
      }

      .cls-2 {
        fill: url(#Unbenannter_Verlauf_50-2);
      }

      .cls-3 {
        fill: url(#Unbenannter_Verlauf_50-3);
      }

      .cls-4 {
        fill: #00ff91;
      }

      .cls-5 {
        fill: #022147;
      }

      .cls-6 {
        fill: url(#Unbenannter_Verlauf_50);
      }

      .cls-7 {
        fill: url(#Unbenannter_Verlauf_51);
      }
    </style>
    <linearGradient id="Unbenannter_Verlauf_50" data-name="Unbenannter Verlauf 50" x1="18" y1="53.77" x2="36" y2="53.77" gradientTransform="translate(0 71.55) scale(1 -1)" gradientUnits="userSpaceOnUse">
      <stop offset="0" stop-color="#151f42" stop-opacity="0"/>
      <stop offset="1" stop-color="#151f42" stop-opacity=".6"/>
    </linearGradient>
    <linearGradient id="Unbenannter_Verlauf_50-2" data-name="Unbenannter Verlauf 50" x1="31.5" y1="44.78" x2="58.5" y2="44.78" xlink:href="#Unbenannter_Verlauf_50"/>
    <linearGradient id="Unbenannter_Verlauf_51" data-name="Unbenannter Verlauf 51" x1="27" y1="13.28" x2="27" y2="40.28" gradientTransform="translate(0 71.55) scale(1 -1)" gradientUnits="userSpaceOnUse">
      <stop offset="0" stop-color="#151f42" stop-opacity=".6"/>
      <stop offset="1" stop-color="#151f42" stop-opacity="0"/>
    </linearGradient>
    <linearGradient id="Unbenannter_Verlauf_50-3" data-name="Unbenannter Verlauf 50" x1="2.2" y1="18.6" x2="20.46" y2="39.6" xlink:href="#Unbenannter_Verlauf_50"/>
  </defs>
  <g id="xmain">
    <g>
      <rect class="cls-6" x="18" y="13.28" width="18" height="9"/>
      <path class="cls-2" d="m36,13.28c-1.15,0-2.3.44-3.18,1.32-1.76,1.76-1.76,4.61,0,6.36l18,18c1.76,1.76,4.61,1.76,6.36,0,1.76-1.76,1.76-4.61,0-6.36l-18-18c-.88-.88-2.03-1.32-3.18-1.32Z"/>
      <path class="cls-7" d="m18,31.27c-1.15,0-2.3.44-3.18,1.32-1.76,1.76-1.76,4.61,0,6.36l18,18c1.76,1.76,4.61,1.76,6.36,0,1.76-1.76,1.76-4.61,0-6.36l-18-18c-.88-.88-2.03-1.32-3.18-1.32Z"/>
      <path class="cls-3" d="m18,31.27c-1.15,0-2.3.44-3.18,1.32L1.47,45.94c-1.76,1.76-1.76,4.61,0,6.36,1.76,1.76,4.61,1.76,6.36,0l13.35-13.35c1.76-1.76,1.76-4.61,0-6.36-.88-.88-2.03-1.32-3.18-1.32Z"/>
      <circle class="cls-5" cx="36" cy="17.78" r="4.5"/>
      <circle class="cls-5" cx="18" cy="17.78" r="4.5"/>
      <circle class="cls-5" cx="18" cy="35.77" r="4.5"/>
      <circle class="cls-5" cx="36" cy="35.77" r="4.5"/>
      <circle class="cls-5" cx="54" cy="35.77" r="4.5"/>
      <circle class="cls-5" cx="18" cy="53.77" r="4.5"/>
      <circle class="cls-5" cx="36" cy="53.77" r="4.5"/>
      <circle class="cls-5" cx="54" cy="53.77" r="4.5"/>
      <circle class="cls-4" cx="54" cy="17.78" r="4.5"/>
      <rect class="cls-1" width="72" height="72"/>
    </g>
  </g>
</svg>